<svg xmlns="http://www.w3.org/2000/svg" viewBox="0 0 246.71 246.71"><defs><style>.cls-1{opacity:0.2;}.cls-2{opacity:0.3;}.cls-3,.cls-4{opacity:0.4;}.cls-4{fill:none;stroke:#000;stroke-miterlimit:10;stroke-width:6px;}</style></defs><title>40-30-20</title><g id="Layer_2" data-name="Layer 2"><g id="Layer_1-2" data-name="Layer 1"><path class="cls-1" d="M167,71.3c14.63,43.38,31.17,109.09,1,130.78,12.43-16.29-1.1-57.5-18.21-88.17C158.8,105.05,160.83,92.46,167,71.3Z"/><path class="cls-2" d="M76.73,42.54c5.44,106-42.06,130,8.74,159.54-14.26-37.25,1.76-17.3,21.26-110.63C97.87,66.86,86.93,51.31,76.73,42.54Z"/><g class="cls-3"><path d="M168,181.76A41.29,41.29,0,1,1,99.8,150.48C107,144.24,168,159,168,181.76Z"/><path d="M167.85,179.59c-6.92-49.19-49.1-85.37-29.56-155.92-17.09,7.95-29.22,101.85-48.21,139.12"/></g></g><g id="Layer_2-2" data-name="Layer 2"><circle class="cls-4" cx="123.36" cy="123.36" r="120.36"/></g></g></svg>